<mxfile host="app.diagrams.net" modified="2024-01-11T12:38:49.116Z" agent="Mozilla/5.0 (Windows NT 10.0; Win64; x64) AppleWebKit/537.36 (KHTML, like Gecko) Chrome/120.0.0.0 Safari/537.36" etag="wzmX6dKi9NGXilV-vQZ9" version="22.1.18" type="google">
  <diagram name="Page-1" id="e-a-d-Ii2v5D2ipHNOGc">
    <mxGraphModel grid="1" page="1" gridSize="10" guides="1" tooltips="1" connect="1" arrows="1" fold="1" pageScale="1" pageWidth="850" pageHeight="1100" math="0" shadow="0">
      <root>
        <mxCell id="0" />
        <mxCell id="1" parent="0" />
        <mxCell id="WLXoXB4fzLFqvVcd2ABZ-164" value="" style="group" vertex="1" connectable="0" parent="1">
          <mxGeometry x="240" y="480" width="630.05" height="710" as="geometry" />
        </mxCell>
        <mxCell id="WLXoXB4fzLFqvVcd2ABZ-126" value="" style="rounded=0;whiteSpace=wrap;html=1;fontFamily=Helvetica;fontSize=11;fontColor=default;fillColor=none;dashed=1;movable=0;resizable=0;rotatable=0;deletable=0;editable=0;locked=1;connectable=0;container=0;" vertex="1" parent="WLXoXB4fzLFqvVcd2ABZ-164">
          <mxGeometry width="630.05" height="710" as="geometry" />
        </mxCell>
        <mxCell id="WLXoXB4fzLFqvVcd2ABZ-149" value="&lt;font style=&quot;font-size: 7px;&quot;&gt;&lt;br&gt;&lt;br&gt;Brake SW&lt;/font&gt;" style="rounded=0;whiteSpace=wrap;html=1;fontFamily=Helvetica;fontSize=11;fontColor=default;fillColor=none;dashed=1;movable=1;resizable=1;rotatable=1;deletable=1;editable=1;locked=0;connectable=1;container=0;" vertex="1" parent="WLXoXB4fzLFqvVcd2ABZ-164">
          <mxGeometry x="157.5" y="500" width="70" height="40" as="geometry" />
        </mxCell>
        <mxCell id="WLXoXB4fzLFqvVcd2ABZ-15" value="" style="html=1;shape=mxgraph.electrical.electro-mechanical.twoWaySwitch;aspect=fixed;elSwitchState=2;fontFamily=Helvetica;fontSize=11;fontColor=default;movable=1;resizable=1;rotatable=1;deletable=1;editable=1;locked=0;connectable=1;container=0;" vertex="1" parent="WLXoXB4fzLFqvVcd2ABZ-164">
          <mxGeometry x="290" y="230" width="57.69" height="20" as="geometry" />
        </mxCell>
        <mxCell id="WLXoXB4fzLFqvVcd2ABZ-30" style="edgeStyle=orthogonalEdgeStyle;shape=connector;rounded=0;orthogonalLoop=1;jettySize=auto;html=1;exitX=1;exitY=0.8;exitDx=0;exitDy=0;entryX=0.757;entryY=0.013;entryDx=0;entryDy=0;labelBackgroundColor=default;strokeColor=default;align=center;verticalAlign=middle;fontFamily=Helvetica;fontSize=11;fontColor=default;endArrow=none;endFill=0;entryPerimeter=0;movable=1;resizable=1;rotatable=1;deletable=1;editable=1;locked=0;connectable=1;" edge="1" parent="WLXoXB4fzLFqvVcd2ABZ-164" source="WLXoXB4fzLFqvVcd2ABZ-18" target="WLXoXB4fzLFqvVcd2ABZ-15">
          <mxGeometry relative="1" as="geometry" />
        </mxCell>
        <mxCell id="WLXoXB4fzLFqvVcd2ABZ-32" style="edgeStyle=orthogonalEdgeStyle;shape=connector;rounded=0;orthogonalLoop=1;jettySize=auto;html=1;exitX=0;exitY=0.8;exitDx=0;exitDy=0;labelBackgroundColor=default;strokeColor=default;align=center;verticalAlign=middle;fontFamily=Helvetica;fontSize=11;fontColor=default;endArrow=none;endFill=0;movable=1;resizable=1;rotatable=1;deletable=1;editable=1;locked=0;connectable=1;" edge="1" parent="WLXoXB4fzLFqvVcd2ABZ-164" source="WLXoXB4fzLFqvVcd2ABZ-18">
          <mxGeometry relative="1" as="geometry">
            <mxPoint x="275.0666666666667" y="230" as="targetPoint" />
          </mxGeometry>
        </mxCell>
        <mxCell id="WLXoXB4fzLFqvVcd2ABZ-18" value="" style="html=1;shape=mxgraph.electrical.electro-mechanical.pushbutton;aspect=fixed;elSwitchState=off;fontFamily=Helvetica;fontSize=11;fontColor=default;movable=1;resizable=1;rotatable=1;deletable=1;editable=1;locked=0;connectable=1;container=0;" vertex="1" parent="WLXoXB4fzLFqvVcd2ABZ-164">
          <mxGeometry x="275.04999999999995" y="187.01999999999998" width="59.9" height="15.97" as="geometry" />
        </mxCell>
        <mxCell id="WLXoXB4fzLFqvVcd2ABZ-31" style="edgeStyle=orthogonalEdgeStyle;shape=connector;rounded=0;orthogonalLoop=1;jettySize=auto;html=1;labelBackgroundColor=default;strokeColor=default;align=center;verticalAlign=middle;fontFamily=Helvetica;fontSize=11;fontColor=default;endArrow=none;endFill=0;curved=1;movable=1;resizable=1;rotatable=1;deletable=1;editable=1;locked=0;connectable=1;" edge="1" parent="WLXoXB4fzLFqvVcd2ABZ-164">
          <mxGeometry relative="1" as="geometry">
            <mxPoint x="275.04999999999995" y="230" as="sourcePoint" />
            <mxPoint x="275.04999999999995" y="250" as="targetPoint" />
            <Array as="points">
              <mxPoint x="265" y="230" />
              <mxPoint x="265" y="250" />
            </Array>
          </mxGeometry>
        </mxCell>
        <mxCell id="WLXoXB4fzLFqvVcd2ABZ-33" value="" style="endArrow=none;html=1;rounded=0;labelBackgroundColor=default;strokeColor=default;align=center;verticalAlign=middle;fontFamily=Helvetica;fontSize=11;fontColor=default;shape=connector;entryX=0.759;entryY=1.006;entryDx=0;entryDy=0;entryPerimeter=0;edgeStyle=orthogonalEdgeStyle;movable=1;resizable=1;rotatable=1;deletable=1;editable=1;locked=0;connectable=1;" edge="1" parent="WLXoXB4fzLFqvVcd2ABZ-164" target="WLXoXB4fzLFqvVcd2ABZ-15">
          <mxGeometry width="50" height="50" relative="1" as="geometry">
            <mxPoint x="270" y="250" as="sourcePoint" />
            <mxPoint x="370" y="230" as="targetPoint" />
            <Array as="points">
              <mxPoint x="280" y="250" />
              <mxPoint x="280" y="290" />
              <mxPoint x="334" y="290" />
            </Array>
          </mxGeometry>
        </mxCell>
        <mxCell id="WLXoXB4fzLFqvVcd2ABZ-34" value="&lt;font style=&quot;font-size: 5px;&quot;&gt;&lt;br&gt;&lt;br&gt;HeadLight SW&lt;/font&gt;" style="rounded=0;whiteSpace=wrap;html=1;fontFamily=Helvetica;fontSize=11;fontColor=default;fillColor=none;dashed=1;align=left;movable=1;resizable=1;rotatable=1;deletable=1;editable=1;locked=0;connectable=1;container=0;" vertex="1" parent="WLXoXB4fzLFqvVcd2ABZ-164">
          <mxGeometry x="290" y="220" width="60" height="40" as="geometry" />
        </mxCell>
        <mxCell id="WLXoXB4fzLFqvVcd2ABZ-35" value="" style="rounded=0;whiteSpace=wrap;html=1;fontFamily=Helvetica;fontSize=11;fontColor=default;fillColor=none;dashed=1;movable=1;resizable=1;rotatable=1;deletable=1;editable=1;locked=0;connectable=1;container=0;" vertex="1" parent="WLXoXB4fzLFqvVcd2ABZ-164">
          <mxGeometry x="270" y="170" width="70" height="40" as="geometry" />
        </mxCell>
        <mxCell id="WLXoXB4fzLFqvVcd2ABZ-36" value="&lt;font style=&quot;font-size: 5px;&quot;&gt;Pass Light SW&lt;/font&gt;" style="text;html=1;strokeColor=none;fillColor=none;align=center;verticalAlign=middle;whiteSpace=wrap;rounded=0;fontSize=11;fontFamily=Helvetica;fontColor=default;movable=1;resizable=1;rotatable=1;deletable=1;editable=1;locked=0;connectable=1;container=0;" vertex="1" parent="WLXoXB4fzLFqvVcd2ABZ-164">
          <mxGeometry x="275.04999999999995" y="167.01999999999998" width="60" height="20" as="geometry" />
        </mxCell>
        <mxCell id="WLXoXB4fzLFqvVcd2ABZ-19" style="edgeStyle=orthogonalEdgeStyle;shape=connector;rounded=0;orthogonalLoop=1;jettySize=auto;html=1;exitX=1;exitY=0.12;exitDx=0;exitDy=0;labelBackgroundColor=default;strokeColor=default;align=center;verticalAlign=middle;fontFamily=Helvetica;fontSize=11;fontColor=default;endArrow=none;endFill=0;entryX=0;entryY=0.5;entryDx=0;entryDy=0;movable=1;resizable=1;rotatable=1;deletable=1;editable=1;locked=0;connectable=1;" edge="1" parent="WLXoXB4fzLFqvVcd2ABZ-164" source="WLXoXB4fzLFqvVcd2ABZ-15" target="WLXoXB4fzLFqvVcd2ABZ-17">
          <mxGeometry relative="1" as="geometry">
            <mxPoint x="430" y="205" as="targetPoint" />
            <Array as="points">
              <mxPoint x="380" y="232" />
              <mxPoint x="380" y="205" />
            </Array>
          </mxGeometry>
        </mxCell>
        <mxCell id="WLXoXB4fzLFqvVcd2ABZ-20" style="edgeStyle=orthogonalEdgeStyle;shape=connector;rounded=0;orthogonalLoop=1;jettySize=auto;html=1;exitX=1;exitY=0.88;exitDx=0;exitDy=0;labelBackgroundColor=default;strokeColor=default;align=center;verticalAlign=middle;fontFamily=Helvetica;fontSize=11;fontColor=default;endArrow=none;endFill=0;movable=1;resizable=1;rotatable=1;deletable=1;editable=1;locked=0;connectable=1;" edge="1" parent="WLXoXB4fzLFqvVcd2ABZ-164" source="WLXoXB4fzLFqvVcd2ABZ-15">
          <mxGeometry relative="1" as="geometry">
            <mxPoint x="420" y="270" as="targetPoint" />
            <Array as="points">
              <mxPoint x="380" y="248" />
              <mxPoint x="380" y="270" />
              <mxPoint x="420" y="270" />
            </Array>
          </mxGeometry>
        </mxCell>
        <mxCell id="WLXoXB4fzLFqvVcd2ABZ-39" style="edgeStyle=orthogonalEdgeStyle;shape=connector;rounded=0;orthogonalLoop=1;jettySize=auto;html=1;exitX=1;exitY=0.5;exitDx=0;exitDy=0;entryX=1;entryY=0.5;entryDx=0;entryDy=0;labelBackgroundColor=default;strokeColor=default;align=center;verticalAlign=middle;fontFamily=Helvetica;fontSize=11;fontColor=default;endArrow=none;endFill=0;movable=1;resizable=1;rotatable=1;deletable=1;editable=1;locked=0;connectable=1;" edge="1" parent="WLXoXB4fzLFqvVcd2ABZ-164" target="WLXoXB4fzLFqvVcd2ABZ-8">
          <mxGeometry relative="1" as="geometry">
            <mxPoint x="520" y="202.99" as="sourcePoint" />
            <mxPoint x="490" y="592.99" as="targetPoint" />
            <Array as="points">
              <mxPoint x="600" y="203" />
              <mxPoint x="600" y="595" />
            </Array>
          </mxGeometry>
        </mxCell>
        <mxCell id="WLXoXB4fzLFqvVcd2ABZ-49" value="" style="pointerEvents=1;verticalLabelPosition=bottom;shadow=0;dashed=0;align=center;html=1;verticalAlign=top;shape=mxgraph.electrical.electro-mechanical.selectorSwitch3Position2;elSwitchState=1;fontFamily=Helvetica;fontSize=11;fontColor=default;flipH=1;movable=1;resizable=1;rotatable=1;deletable=1;editable=1;locked=0;connectable=1;container=0;" vertex="1" parent="WLXoXB4fzLFqvVcd2ABZ-164">
          <mxGeometry x="160" y="294" width="75" height="46" as="geometry" />
        </mxCell>
        <mxCell id="WLXoXB4fzLFqvVcd2ABZ-51" style="edgeStyle=orthogonalEdgeStyle;shape=connector;rounded=0;orthogonalLoop=1;jettySize=auto;html=1;entryX=0.011;entryY=0.509;entryDx=0;entryDy=0;entryPerimeter=0;labelBackgroundColor=default;strokeColor=default;align=center;verticalAlign=middle;fontFamily=Helvetica;fontSize=11;fontColor=default;endArrow=none;endFill=0;exitX=0;exitY=0.5;exitDx=0;exitDy=0;exitPerimeter=0;movable=1;resizable=1;rotatable=1;deletable=1;editable=1;locked=0;connectable=1;" edge="1" parent="WLXoXB4fzLFqvVcd2ABZ-164" source="WLXoXB4fzLFqvVcd2ABZ-22" target="WLXoXB4fzLFqvVcd2ABZ-49">
          <mxGeometry relative="1" as="geometry">
            <mxPoint x="230" y="330" as="sourcePoint" />
            <Array as="points">
              <mxPoint x="250" y="595" />
              <mxPoint x="250" y="317" />
            </Array>
          </mxGeometry>
        </mxCell>
        <mxCell id="WLXoXB4fzLFqvVcd2ABZ-52" value="" style="endArrow=none;html=1;rounded=0;labelBackgroundColor=default;strokeColor=default;align=center;verticalAlign=middle;fontFamily=Helvetica;fontSize=11;fontColor=default;shape=connector;edgeStyle=orthogonalEdgeStyle;exitX=0.995;exitY=0.065;exitDx=0;exitDy=0;exitPerimeter=0;entryX=1;entryY=0.5;entryDx=0;entryDy=0;movable=1;resizable=1;rotatable=1;deletable=1;editable=1;locked=0;connectable=1;" edge="1" parent="WLXoXB4fzLFqvVcd2ABZ-164" source="WLXoXB4fzLFqvVcd2ABZ-49" target="WLXoXB4fzLFqvVcd2ABZ-45">
          <mxGeometry width="50" height="50" relative="1" as="geometry">
            <mxPoint x="150" y="310" as="sourcePoint" />
            <mxPoint x="200" y="260" as="targetPoint" />
            <Array as="points">
              <mxPoint x="160" y="297" />
              <mxPoint x="160" y="185" />
            </Array>
          </mxGeometry>
        </mxCell>
        <mxCell id="WLXoXB4fzLFqvVcd2ABZ-53" style="edgeStyle=orthogonalEdgeStyle;shape=connector;rounded=0;orthogonalLoop=1;jettySize=auto;html=1;exitX=1;exitY=0.5;exitDx=0;exitDy=0;entryX=1;entryY=0.034;entryDx=0;entryDy=0;entryPerimeter=0;labelBackgroundColor=default;strokeColor=default;align=center;verticalAlign=middle;fontFamily=Helvetica;fontSize=11;fontColor=default;endArrow=none;endFill=0;movable=1;resizable=1;rotatable=1;deletable=1;editable=1;locked=0;connectable=1;" edge="1" parent="WLXoXB4fzLFqvVcd2ABZ-164" source="WLXoXB4fzLFqvVcd2ABZ-46" target="WLXoXB4fzLFqvVcd2ABZ-49">
          <mxGeometry relative="1" as="geometry">
            <Array as="points">
              <mxPoint x="160" y="253" />
              <mxPoint x="160" y="296" />
            </Array>
          </mxGeometry>
        </mxCell>
        <mxCell id="WLXoXB4fzLFqvVcd2ABZ-59" value="&lt;font style=&quot;font-size: 6px;&quot;&gt;Flash Circuit&lt;/font&gt;" style="rounded=0;whiteSpace=wrap;html=1;fontFamily=Helvetica;fontSize=11;fontColor=default;movable=1;resizable=1;rotatable=1;deletable=1;editable=1;locked=0;connectable=1;container=0;" vertex="1" parent="WLXoXB4fzLFqvVcd2ABZ-164">
          <mxGeometry x="140" y="260" width="40" height="20" as="geometry" />
        </mxCell>
        <mxCell id="WLXoXB4fzLFqvVcd2ABZ-64" style="edgeStyle=orthogonalEdgeStyle;shape=connector;rounded=0;orthogonalLoop=1;jettySize=auto;html=1;entryX=0.973;entryY=0.936;entryDx=0;entryDy=0;entryPerimeter=0;labelBackgroundColor=default;strokeColor=default;align=center;verticalAlign=middle;fontFamily=Helvetica;fontSize=11;fontColor=default;endArrow=none;endFill=0;exitX=1;exitY=0.5;exitDx=0;exitDy=0;movable=1;resizable=1;rotatable=1;deletable=1;editable=1;locked=0;connectable=1;" edge="1" parent="WLXoXB4fzLFqvVcd2ABZ-164" source="WLXoXB4fzLFqvVcd2ABZ-42" target="WLXoXB4fzLFqvVcd2ABZ-49">
          <mxGeometry relative="1" as="geometry">
            <mxPoint x="110.98000000000002" y="377.51534883720933" as="sourcePoint" />
            <mxPoint x="159.97500000000002" y="340.004" as="targetPoint" />
            <Array as="points">
              <mxPoint x="114" y="377" />
              <mxPoint x="160" y="377" />
              <mxPoint x="160" y="337" />
            </Array>
          </mxGeometry>
        </mxCell>
        <mxCell id="WLXoXB4fzLFqvVcd2ABZ-67" value="&lt;font style=&quot;font-size: 6px;&quot;&gt;&lt;span style=&quot;background-color: initial;&quot;&gt;&lt;br&gt;&lt;br&gt;&lt;div style=&quot;text-align: right;&quot;&gt;&lt;span style=&quot;background-color: initial;&quot;&gt;&amp;nbsp; &amp;nbsp; &amp;nbsp; &amp;nbsp; &amp;nbsp; &amp;nbsp; &amp;nbsp; &amp;nbsp; &amp;nbsp; &amp;nbsp; &amp;nbsp; &amp;nbsp;&amp;nbsp;&lt;/span&gt;&lt;/div&gt;&lt;div style=&quot;text-align: right;&quot;&gt;&lt;br&gt;&lt;/div&gt;&lt;div style=&quot;text-align: right;&quot;&gt;&lt;span style=&quot;background-color: initial;&quot;&gt;&amp;nbsp; &amp;nbsp; &amp;nbsp; &amp;nbsp; &amp;nbsp; &amp;nbsp; &amp;nbsp; &amp;nbsp; &amp;nbsp; &amp;nbsp; &amp;nbsp; Indicator SW&lt;/span&gt;&lt;br&gt;&lt;/div&gt;&lt;/span&gt;&lt;/font&gt;" style="rounded=0;whiteSpace=wrap;html=1;fontFamily=Helvetica;fontSize=11;fontColor=default;fillColor=none;dashed=1;movable=1;resizable=1;rotatable=1;deletable=1;editable=1;locked=0;connectable=1;container=0;" vertex="1" parent="WLXoXB4fzLFqvVcd2ABZ-164">
          <mxGeometry x="150" y="290" width="80" height="50" as="geometry" />
        </mxCell>
        <mxCell id="WLXoXB4fzLFqvVcd2ABZ-70" style="edgeStyle=orthogonalEdgeStyle;shape=connector;rounded=0;orthogonalLoop=1;jettySize=auto;html=1;exitX=0;exitY=0.8;exitDx=0;exitDy=0;labelBackgroundColor=default;strokeColor=default;align=center;verticalAlign=middle;fontFamily=Helvetica;fontSize=11;fontColor=default;endArrow=none;endFill=0;movable=1;resizable=1;rotatable=1;deletable=1;editable=1;locked=0;connectable=1;" edge="1" parent="WLXoXB4fzLFqvVcd2ABZ-164" source="WLXoXB4fzLFqvVcd2ABZ-68">
          <mxGeometry relative="1" as="geometry">
            <mxPoint x="250" y="320" as="targetPoint" />
          </mxGeometry>
        </mxCell>
        <mxCell id="WLXoXB4fzLFqvVcd2ABZ-68" value="" style="html=1;shape=mxgraph.electrical.electro-mechanical.pushbutton;aspect=fixed;elSwitchState=off;fontFamily=Helvetica;fontSize=11;fontColor=default;movable=1;resizable=1;rotatable=1;deletable=1;editable=1;locked=0;connectable=1;container=0;" vertex="1" parent="WLXoXB4fzLFqvVcd2ABZ-164">
          <mxGeometry x="300" y="305" width="75" height="20" as="geometry" />
        </mxCell>
        <mxCell id="WLXoXB4fzLFqvVcd2ABZ-69" value="Horn" style="rounded=0;whiteSpace=wrap;html=1;fontFamily=Helvetica;fontSize=11;fontColor=default;movable=1;resizable=1;rotatable=1;deletable=1;editable=1;locked=0;connectable=1;container=0;" vertex="1" parent="WLXoXB4fzLFqvVcd2ABZ-164">
          <mxGeometry x="425" y="305" width="60" height="30" as="geometry" />
        </mxCell>
        <mxCell id="WLXoXB4fzLFqvVcd2ABZ-72" style="edgeStyle=orthogonalEdgeStyle;shape=connector;rounded=0;orthogonalLoop=1;jettySize=auto;html=1;exitX=1;exitY=0.8;exitDx=0;exitDy=0;entryX=0;entryY=0.5;entryDx=0;entryDy=0;labelBackgroundColor=default;strokeColor=default;align=center;verticalAlign=middle;fontFamily=Helvetica;fontSize=11;fontColor=default;endArrow=none;endFill=0;movable=1;resizable=1;rotatable=1;deletable=1;editable=1;locked=0;connectable=1;" edge="1" parent="WLXoXB4fzLFqvVcd2ABZ-164" source="WLXoXB4fzLFqvVcd2ABZ-68" target="WLXoXB4fzLFqvVcd2ABZ-69">
          <mxGeometry relative="1" as="geometry" />
        </mxCell>
        <mxCell id="WLXoXB4fzLFqvVcd2ABZ-152" style="edgeStyle=orthogonalEdgeStyle;shape=connector;rounded=0;orthogonalLoop=1;jettySize=auto;html=1;exitX=1;exitY=0.5;exitDx=0;exitDy=0;labelBackgroundColor=default;strokeColor=default;align=center;verticalAlign=middle;fontFamily=Helvetica;fontSize=11;fontColor=default;endArrow=none;endFill=0;movable=1;resizable=1;rotatable=1;deletable=1;editable=1;locked=0;connectable=1;" edge="1" parent="WLXoXB4fzLFqvVcd2ABZ-164" source="WLXoXB4fzLFqvVcd2ABZ-73">
          <mxGeometry relative="1" as="geometry">
            <mxPoint x="170.0000000000001" y="99.75" as="targetPoint" />
            <Array as="points">
              <mxPoint x="600" y="100" />
              <mxPoint x="600" y="30" />
              <mxPoint x="30" y="30" />
              <mxPoint x="30" y="100" />
            </Array>
          </mxGeometry>
        </mxCell>
        <mxCell id="WLXoXB4fzLFqvVcd2ABZ-157" value="GND" style="edgeLabel;html=1;align=center;verticalAlign=middle;resizable=1;points=[];fontSize=11;fontFamily=Helvetica;fontColor=default;movable=1;rotatable=1;deletable=1;editable=1;locked=0;connectable=1;container=0;" vertex="1" connectable="0" parent="WLXoXB4fzLFqvVcd2ABZ-152">
          <mxGeometry x="-0.0348" relative="1" as="geometry">
            <mxPoint as="offset" />
          </mxGeometry>
        </mxCell>
        <mxCell id="WLXoXB4fzLFqvVcd2ABZ-73" value="Rear Light" style="rounded=0;whiteSpace=wrap;html=1;fontFamily=Helvetica;fontSize=11;fontColor=default;movable=1;resizable=1;rotatable=1;deletable=1;editable=1;locked=0;connectable=1;container=0;" vertex="1" parent="WLXoXB4fzLFqvVcd2ABZ-164">
          <mxGeometry x="405" y="80" width="80" height="40" as="geometry" />
        </mxCell>
        <mxCell id="WLXoXB4fzLFqvVcd2ABZ-76" style="edgeStyle=orthogonalEdgeStyle;shape=connector;rounded=0;orthogonalLoop=1;jettySize=auto;html=1;entryX=0;entryY=0.5;entryDx=0;entryDy=0;entryPerimeter=0;labelBackgroundColor=default;strokeColor=default;align=center;verticalAlign=middle;fontFamily=Helvetica;fontSize=11;fontColor=default;endArrow=none;endFill=0;movable=1;resizable=1;rotatable=1;deletable=1;editable=1;locked=0;connectable=1;" edge="1" parent="WLXoXB4fzLFqvVcd2ABZ-164" source="WLXoXB4fzLFqvVcd2ABZ-73" target="WLXoXB4fzLFqvVcd2ABZ-22">
          <mxGeometry relative="1" as="geometry">
            <Array as="points">
              <mxPoint x="250" y="100" />
              <mxPoint x="250" y="595" />
            </Array>
          </mxGeometry>
        </mxCell>
        <mxCell id="WLXoXB4fzLFqvVcd2ABZ-84" value="&lt;font style=&quot;font-size: 8px;&quot;&gt;Ignition SW&lt;/font&gt;" style="text;html=1;strokeColor=none;fillColor=none;align=center;verticalAlign=middle;whiteSpace=wrap;rounded=0;fontSize=11;fontFamily=Helvetica;fontColor=default;movable=1;resizable=1;rotatable=1;deletable=1;editable=1;locked=0;connectable=1;container=0;" vertex="1" parent="WLXoXB4fzLFqvVcd2ABZ-164">
          <mxGeometry x="260" y="550" width="30" height="30" as="geometry" />
        </mxCell>
        <mxCell id="WLXoXB4fzLFqvVcd2ABZ-85" value="&lt;font style=&quot;font-size: 6px;&quot;&gt;&lt;span style=&quot;background-color: initial;&quot;&gt;&lt;br&gt;&lt;br&gt;&lt;div style=&quot;text-align: right;&quot;&gt;&lt;span style=&quot;background-color: initial;&quot;&gt;&amp;nbsp; &amp;nbsp; &amp;nbsp; &amp;nbsp; &amp;nbsp; &amp;nbsp; &amp;nbsp; &amp;nbsp; &amp;nbsp; &amp;nbsp; &amp;nbsp; &amp;nbsp;&amp;nbsp;&lt;/span&gt;&lt;/div&gt;&lt;div style=&quot;text-align: right;&quot;&gt;&lt;br&gt;&lt;/div&gt;&lt;div style=&quot;text-align: right;&quot;&gt;&lt;span style=&quot;background-color: initial;&quot;&gt;&amp;nbsp; &amp;nbsp; &amp;nbsp; &amp;nbsp; &amp;nbsp; &amp;nbsp; &amp;nbsp; &amp;nbsp; &amp;nbsp; &amp;nbsp; &amp;nbsp;Horn SW&lt;/span&gt;&lt;br&gt;&lt;/div&gt;&lt;/span&gt;&lt;/font&gt;" style="rounded=0;whiteSpace=wrap;html=1;fontFamily=Helvetica;fontSize=11;fontColor=default;fillColor=none;dashed=1;movable=1;resizable=1;rotatable=1;deletable=1;editable=1;locked=0;connectable=1;container=0;" vertex="1" parent="WLXoXB4fzLFqvVcd2ABZ-164">
          <mxGeometry x="300" y="295" width="75" height="50" as="geometry" />
        </mxCell>
        <mxCell id="WLXoXB4fzLFqvVcd2ABZ-112" style="edgeStyle=orthogonalEdgeStyle;shape=connector;rounded=0;orthogonalLoop=1;jettySize=auto;html=1;exitX=0.5;exitY=0;exitDx=0;exitDy=0;entryX=0;entryY=0.8;entryDx=0;entryDy=0;labelBackgroundColor=default;strokeColor=default;align=center;verticalAlign=middle;fontFamily=Helvetica;fontSize=11;fontColor=default;endArrow=none;endFill=0;movable=1;resizable=1;rotatable=1;deletable=1;editable=1;locked=0;connectable=1;" edge="1" parent="WLXoXB4fzLFqvVcd2ABZ-164" source="WLXoXB4fzLFqvVcd2ABZ-104" target="WLXoXB4fzLFqvVcd2ABZ-68">
          <mxGeometry relative="1" as="geometry">
            <mxPoint x="277.5050000000001" y="360.0050000000001" as="sourcePoint" />
            <Array as="points">
              <mxPoint x="350" y="360" />
              <mxPoint x="250" y="360" />
              <mxPoint x="250" y="321" />
            </Array>
          </mxGeometry>
        </mxCell>
        <mxCell id="WLXoXB4fzLFqvVcd2ABZ-114" value="" style="rounded=0;whiteSpace=wrap;html=1;fontFamily=Helvetica;fontSize=11;fontColor=default;rotation=0;container=0;movable=1;resizable=1;rotatable=1;deletable=1;editable=1;locked=0;connectable=1;" vertex="1" parent="WLXoXB4fzLFqvVcd2ABZ-164">
          <mxGeometry x="320" y="460" width="130" height="40" as="geometry" />
        </mxCell>
        <mxCell id="WLXoXB4fzLFqvVcd2ABZ-118" value="&lt;font style=&quot;font-size: 8px;&quot;&gt;Sensors&lt;/font&gt;" style="rounded=0;whiteSpace=wrap;html=1;fontFamily=Helvetica;fontSize=11;fontColor=default;rotation=0;container=0;movable=1;resizable=1;rotatable=1;deletable=1;editable=1;locked=0;connectable=1;" vertex="1" parent="WLXoXB4fzLFqvVcd2ABZ-164">
          <mxGeometry x="329.41999999999996" y="470" width="36.16" height="20" as="geometry" />
        </mxCell>
        <mxCell id="WLXoXB4fzLFqvVcd2ABZ-119" value="&lt;font style=&quot;font-size: 6px;&quot;&gt;Rpi4 + TFT&lt;/font&gt;" style="rounded=0;whiteSpace=wrap;html=1;fontFamily=Helvetica;fontSize=11;fontColor=default;rotation=0;container=0;movable=1;resizable=1;rotatable=1;deletable=1;editable=1;locked=0;connectable=1;" vertex="1" parent="WLXoXB4fzLFqvVcd2ABZ-164">
          <mxGeometry x="405" y="470" width="36.16" height="20" as="geometry" />
        </mxCell>
        <mxCell id="WLXoXB4fzLFqvVcd2ABZ-120" value="&lt;font style=&quot;font-size: 5px;&quot;&gt;ESP32 - VCU&lt;/font&gt;" style="rounded=0;whiteSpace=wrap;html=1;fontFamily=Helvetica;fontSize=11;fontColor=default;rotation=0;container=0;movable=1;resizable=1;rotatable=1;deletable=1;editable=1;locked=0;connectable=1;" vertex="1" parent="WLXoXB4fzLFqvVcd2ABZ-164">
          <mxGeometry x="366.91999999999996" y="470" width="36.16" height="20" as="geometry" />
        </mxCell>
        <mxCell id="WLXoXB4fzLFqvVcd2ABZ-134" style="edgeStyle=orthogonalEdgeStyle;shape=connector;rounded=0;orthogonalLoop=1;jettySize=auto;html=1;exitX=0.5;exitY=1;exitDx=0;exitDy=0;entryX=0.5;entryY=0;entryDx=0;entryDy=0;labelBackgroundColor=default;strokeColor=default;align=center;verticalAlign=middle;fontFamily=Helvetica;fontSize=11;fontColor=default;endArrow=none;endFill=0;movable=1;resizable=1;rotatable=1;deletable=1;editable=1;locked=0;connectable=1;" edge="1" parent="WLXoXB4fzLFqvVcd2ABZ-164" source="WLXoXB4fzLFqvVcd2ABZ-106" target="WLXoXB4fzLFqvVcd2ABZ-118">
          <mxGeometry relative="1" as="geometry" />
        </mxCell>
        <mxCell id="WLXoXB4fzLFqvVcd2ABZ-135" style="edgeStyle=orthogonalEdgeStyle;shape=connector;rounded=0;orthogonalLoop=1;jettySize=auto;html=1;exitX=0.5;exitY=1;exitDx=0;exitDy=0;entryX=0.5;entryY=0;entryDx=0;entryDy=0;labelBackgroundColor=default;strokeColor=default;align=center;verticalAlign=middle;fontFamily=Helvetica;fontSize=11;fontColor=default;endArrow=none;endFill=0;movable=1;resizable=1;rotatable=1;deletable=1;editable=1;locked=0;connectable=1;" edge="1" parent="WLXoXB4fzLFqvVcd2ABZ-164" source="WLXoXB4fzLFqvVcd2ABZ-106" target="WLXoXB4fzLFqvVcd2ABZ-120">
          <mxGeometry relative="1" as="geometry" />
        </mxCell>
        <mxCell id="WLXoXB4fzLFqvVcd2ABZ-143" value="Brake light" style="rounded=0;whiteSpace=wrap;html=1;fontFamily=Helvetica;fontSize=11;fontColor=default;movable=1;resizable=1;rotatable=1;deletable=1;editable=1;locked=0;connectable=1;container=0;" vertex="1" parent="WLXoXB4fzLFqvVcd2ABZ-164">
          <mxGeometry x="50" y="490" width="80" height="40" as="geometry" />
        </mxCell>
        <mxCell id="WLXoXB4fzLFqvVcd2ABZ-147" style="edgeStyle=orthogonalEdgeStyle;shape=connector;rounded=0;orthogonalLoop=1;jettySize=auto;html=1;exitX=0;exitY=0.8;exitDx=0;exitDy=0;entryX=1;entryY=0.5;entryDx=0;entryDy=0;labelBackgroundColor=default;strokeColor=default;align=center;verticalAlign=middle;fontFamily=Helvetica;fontSize=11;fontColor=default;endArrow=none;endFill=0;movable=1;resizable=1;rotatable=1;deletable=1;editable=1;locked=0;connectable=1;" edge="1" parent="WLXoXB4fzLFqvVcd2ABZ-164" source="WLXoXB4fzLFqvVcd2ABZ-144" target="WLXoXB4fzLFqvVcd2ABZ-143">
          <mxGeometry relative="1" as="geometry" />
        </mxCell>
        <mxCell id="WLXoXB4fzLFqvVcd2ABZ-144" value="" style="html=1;shape=mxgraph.electrical.electro-mechanical.pushbutton;aspect=fixed;elSwitchState=off;fontFamily=Helvetica;fontSize=11;fontColor=default;movable=1;resizable=1;rotatable=1;deletable=1;editable=1;locked=0;connectable=1;container=0;" vertex="1" parent="WLXoXB4fzLFqvVcd2ABZ-164">
          <mxGeometry x="152.5" y="510" width="75" height="20" as="geometry" />
        </mxCell>
        <mxCell id="WLXoXB4fzLFqvVcd2ABZ-24" style="edgeStyle=orthogonalEdgeStyle;shape=connector;rounded=0;orthogonalLoop=1;jettySize=auto;html=1;exitX=0;exitY=0.5;exitDx=0;exitDy=0;exitPerimeter=0;entryX=0;entryY=0.5;entryDx=0;entryDy=0;labelBackgroundColor=default;strokeColor=default;align=center;verticalAlign=middle;fontFamily=Helvetica;fontSize=11;fontColor=default;endArrow=none;endFill=0;movable=1;resizable=1;rotatable=1;deletable=1;editable=1;locked=0;connectable=1;" edge="1" parent="WLXoXB4fzLFqvVcd2ABZ-164" source="WLXoXB4fzLFqvVcd2ABZ-22" target="WLXoXB4fzLFqvVcd2ABZ-15">
          <mxGeometry relative="1" as="geometry">
            <Array as="points">
              <mxPoint x="250" y="595" />
              <mxPoint x="250" y="240" />
            </Array>
          </mxGeometry>
        </mxCell>
        <mxCell id="WLXoXB4fzLFqvVcd2ABZ-155" style="edgeStyle=orthogonalEdgeStyle;shape=connector;rounded=0;orthogonalLoop=1;jettySize=auto;html=1;exitX=0.5;exitY=1;exitDx=0;exitDy=0;entryX=0.5;entryY=0;entryDx=0;entryDy=0;labelBackgroundColor=default;strokeColor=default;align=center;verticalAlign=middle;fontFamily=Helvetica;fontSize=11;fontColor=default;endArrow=none;endFill=0;movable=1;resizable=1;rotatable=1;deletable=1;editable=1;locked=0;connectable=1;" edge="1" parent="WLXoXB4fzLFqvVcd2ABZ-164" source="WLXoXB4fzLFqvVcd2ABZ-106" target="WLXoXB4fzLFqvVcd2ABZ-119">
          <mxGeometry relative="1" as="geometry" />
        </mxCell>
        <mxCell id="WLXoXB4fzLFqvVcd2ABZ-153" value="" style="pointerEvents=1;verticalLabelPosition=bottom;shadow=0;dashed=0;align=center;html=1;verticalAlign=top;shape=mxgraph.electrical.miscellaneous.fuse_1;fontFamily=Helvetica;fontSize=11;fontColor=default;direction=south;rotation=0;movable=1;resizable=1;rotatable=1;deletable=1;editable=1;locked=0;connectable=1;container=0;" vertex="1" parent="WLXoXB4fzLFqvVcd2ABZ-164">
          <mxGeometry x="315" y="410" width="10" height="28.75" as="geometry" />
        </mxCell>
        <mxCell id="WLXoXB4fzLFqvVcd2ABZ-156" value="&lt;font style=&quot;font-size: 5px;&quot;&gt;2A Fuse&lt;/font&gt;" style="text;html=1;strokeColor=none;fillColor=none;align=center;verticalAlign=middle;whiteSpace=wrap;rounded=0;fontSize=11;fontFamily=Helvetica;fontColor=default;movable=1;resizable=1;rotatable=1;deletable=1;editable=1;locked=0;connectable=1;container=0;" vertex="1" parent="WLXoXB4fzLFqvVcd2ABZ-164">
          <mxGeometry x="325" y="419.38" width="25" height="10" as="geometry" />
        </mxCell>
        <mxCell id="WLXoXB4fzLFqvVcd2ABZ-3" value="" style="rounded=0;whiteSpace=wrap;html=1;movable=1;resizable=1;rotatable=1;deletable=1;editable=1;locked=0;connectable=1;container=0;" vertex="1" parent="WLXoXB4fzLFqvVcd2ABZ-164">
          <mxGeometry x="385" y="620" width="120" height="60" as="geometry" />
        </mxCell>
        <mxCell id="WLXoXB4fzLFqvVcd2ABZ-4" value="" style="whiteSpace=wrap;html=1;aspect=fixed;movable=1;resizable=1;rotatable=1;deletable=1;editable=1;locked=0;connectable=1;container=0;" vertex="1" parent="WLXoXB4fzLFqvVcd2ABZ-164">
          <mxGeometry x="395" y="600" width="20" height="20" as="geometry" />
        </mxCell>
        <mxCell id="WLXoXB4fzLFqvVcd2ABZ-5" value="" style="whiteSpace=wrap;html=1;aspect=fixed;movable=1;resizable=1;rotatable=1;deletable=1;editable=1;locked=0;connectable=1;container=0;" vertex="1" parent="WLXoXB4fzLFqvVcd2ABZ-164">
          <mxGeometry x="475" y="600" width="20" height="20" as="geometry" />
        </mxCell>
        <mxCell id="WLXoXB4fzLFqvVcd2ABZ-6" value="&lt;font style=&quot;font-size: 11px;&quot;&gt;12V 9Ah&lt;/font&gt;" style="rounded=0;whiteSpace=wrap;html=1;movable=1;resizable=1;rotatable=1;deletable=1;editable=1;locked=0;connectable=1;container=0;" vertex="1" parent="WLXoXB4fzLFqvVcd2ABZ-164">
          <mxGeometry x="385" y="610" width="120" height="10" as="geometry" />
        </mxCell>
        <mxCell id="WLXoXB4fzLFqvVcd2ABZ-7" value="+" style="rounded=0;whiteSpace=wrap;html=1;movable=1;resizable=1;rotatable=1;deletable=1;editable=1;locked=0;connectable=1;container=0;" vertex="1" parent="WLXoXB4fzLFqvVcd2ABZ-164">
          <mxGeometry x="400" y="590" width="10" height="10" as="geometry" />
        </mxCell>
        <mxCell id="WLXoXB4fzLFqvVcd2ABZ-146" style="edgeStyle=orthogonalEdgeStyle;shape=connector;rounded=0;orthogonalLoop=1;jettySize=auto;html=1;entryX=0;entryY=0.5;entryDx=0;entryDy=0;labelBackgroundColor=default;strokeColor=default;align=center;verticalAlign=middle;fontFamily=Helvetica;fontSize=11;fontColor=default;endArrow=none;endFill=0;exitX=1;exitY=0.8;exitDx=0;exitDy=0;movable=1;resizable=1;rotatable=1;deletable=1;editable=1;locked=0;connectable=1;" edge="1" parent="WLXoXB4fzLFqvVcd2ABZ-164" source="WLXoXB4fzLFqvVcd2ABZ-144" target="WLXoXB4fzLFqvVcd2ABZ-7">
          <mxGeometry relative="1" as="geometry">
            <Array as="points">
              <mxPoint x="228" y="520" />
              <mxPoint x="250" y="520" />
              <mxPoint x="250" y="595" />
            </Array>
          </mxGeometry>
        </mxCell>
        <mxCell id="WLXoXB4fzLFqvVcd2ABZ-160" value="VCC" style="edgeLabel;html=1;align=center;verticalAlign=middle;resizable=1;points=[];fontSize=11;fontFamily=Helvetica;fontColor=default;movable=1;rotatable=1;deletable=1;editable=1;locked=0;connectable=1;container=0;" vertex="1" connectable="0" parent="WLXoXB4fzLFqvVcd2ABZ-146">
          <mxGeometry x="-0.6384" y="-1" relative="1" as="geometry">
            <mxPoint as="offset" />
          </mxGeometry>
        </mxCell>
        <mxCell id="WLXoXB4fzLFqvVcd2ABZ-127" style="edgeStyle=orthogonalEdgeStyle;shape=connector;rounded=0;orthogonalLoop=1;jettySize=auto;html=1;exitX=0;exitY=0.5;exitDx=0;exitDy=0;entryX=1;entryY=0.5;entryDx=0;entryDy=0;entryPerimeter=0;labelBackgroundColor=default;strokeColor=default;align=center;verticalAlign=middle;fontFamily=Helvetica;fontSize=11;fontColor=default;endArrow=none;endFill=0;movable=1;resizable=1;rotatable=1;deletable=1;editable=1;locked=0;connectable=1;" edge="1" parent="WLXoXB4fzLFqvVcd2ABZ-164" source="WLXoXB4fzLFqvVcd2ABZ-7" target="WLXoXB4fzLFqvVcd2ABZ-22">
          <mxGeometry relative="1" as="geometry" />
        </mxCell>
        <mxCell id="WLXoXB4fzLFqvVcd2ABZ-8" value="-" style="rounded=0;whiteSpace=wrap;html=1;movable=1;resizable=1;rotatable=1;deletable=1;editable=1;locked=0;connectable=1;container=0;" vertex="1" parent="WLXoXB4fzLFqvVcd2ABZ-164">
          <mxGeometry x="480" y="590" width="10" height="10" as="geometry" />
        </mxCell>
        <mxCell id="WLXoXB4fzLFqvVcd2ABZ-71" style="edgeStyle=orthogonalEdgeStyle;shape=connector;rounded=0;orthogonalLoop=1;jettySize=auto;html=1;exitX=1;exitY=0.5;exitDx=0;exitDy=0;entryX=1;entryY=0.5;entryDx=0;entryDy=0;labelBackgroundColor=default;strokeColor=default;align=center;verticalAlign=middle;fontFamily=Helvetica;fontSize=11;fontColor=default;endArrow=none;endFill=0;movable=1;resizable=1;rotatable=1;deletable=1;editable=1;locked=0;connectable=1;" edge="1" parent="WLXoXB4fzLFqvVcd2ABZ-164" source="WLXoXB4fzLFqvVcd2ABZ-69" target="WLXoXB4fzLFqvVcd2ABZ-8">
          <mxGeometry relative="1" as="geometry">
            <Array as="points">
              <mxPoint x="600" y="320" />
              <mxPoint x="600" y="595" />
            </Array>
          </mxGeometry>
        </mxCell>
        <mxCell id="WLXoXB4fzLFqvVcd2ABZ-77" style="edgeStyle=orthogonalEdgeStyle;shape=connector;rounded=0;orthogonalLoop=1;jettySize=auto;html=1;exitX=1;exitY=0.5;exitDx=0;exitDy=0;entryX=1;entryY=0.5;entryDx=0;entryDy=0;labelBackgroundColor=default;strokeColor=default;align=center;verticalAlign=middle;fontFamily=Helvetica;fontSize=11;fontColor=default;endArrow=none;endFill=0;movable=1;resizable=1;rotatable=1;deletable=1;editable=1;locked=0;connectable=1;" edge="1" parent="WLXoXB4fzLFqvVcd2ABZ-164" source="WLXoXB4fzLFqvVcd2ABZ-73" target="WLXoXB4fzLFqvVcd2ABZ-8">
          <mxGeometry relative="1" as="geometry">
            <Array as="points">
              <mxPoint x="600" y="100" />
              <mxPoint x="600" y="595" />
            </Array>
          </mxGeometry>
        </mxCell>
        <mxCell id="WLXoXB4fzLFqvVcd2ABZ-158" value="GND" style="edgeLabel;html=1;align=center;verticalAlign=middle;resizable=1;points=[];fontSize=11;fontFamily=Helvetica;fontColor=default;movable=1;rotatable=1;deletable=1;editable=1;locked=0;connectable=1;container=0;" vertex="1" connectable="0" parent="WLXoXB4fzLFqvVcd2ABZ-77">
          <mxGeometry x="0.1566" y="-1" relative="1" as="geometry">
            <mxPoint y="-41" as="offset" />
          </mxGeometry>
        </mxCell>
        <mxCell id="WLXoXB4fzLFqvVcd2ABZ-137" style="edgeStyle=orthogonalEdgeStyle;shape=connector;rounded=0;orthogonalLoop=1;jettySize=auto;html=1;exitX=0.5;exitY=1;exitDx=0;exitDy=0;entryX=1;entryY=0.5;entryDx=0;entryDy=0;labelBackgroundColor=default;strokeColor=default;align=center;verticalAlign=middle;fontFamily=Helvetica;fontSize=11;fontColor=default;endArrow=none;endFill=0;movable=1;resizable=1;rotatable=1;deletable=1;editable=1;locked=0;connectable=1;" edge="1" parent="WLXoXB4fzLFqvVcd2ABZ-164" source="WLXoXB4fzLFqvVcd2ABZ-118" target="WLXoXB4fzLFqvVcd2ABZ-8">
          <mxGeometry relative="1" as="geometry">
            <Array as="points">
              <mxPoint x="348" y="540" />
              <mxPoint x="600" y="540" />
              <mxPoint x="600" y="595" />
            </Array>
          </mxGeometry>
        </mxCell>
        <mxCell id="WLXoXB4fzLFqvVcd2ABZ-140" style="edgeStyle=orthogonalEdgeStyle;shape=connector;rounded=0;orthogonalLoop=1;jettySize=auto;html=1;exitX=0.5;exitY=1;exitDx=0;exitDy=0;entryX=1;entryY=0.5;entryDx=0;entryDy=0;labelBackgroundColor=default;strokeColor=default;align=center;verticalAlign=middle;fontFamily=Helvetica;fontSize=11;fontColor=default;endArrow=none;endFill=0;movable=1;resizable=1;rotatable=1;deletable=1;editable=1;locked=0;connectable=1;" edge="1" parent="WLXoXB4fzLFqvVcd2ABZ-164" source="WLXoXB4fzLFqvVcd2ABZ-119" target="WLXoXB4fzLFqvVcd2ABZ-8">
          <mxGeometry relative="1" as="geometry">
            <Array as="points">
              <mxPoint x="423" y="540" />
              <mxPoint x="600" y="540" />
              <mxPoint x="600" y="595" />
            </Array>
          </mxGeometry>
        </mxCell>
        <mxCell id="WLXoXB4fzLFqvVcd2ABZ-139" style="edgeStyle=orthogonalEdgeStyle;shape=connector;rounded=0;orthogonalLoop=1;jettySize=auto;html=1;exitX=0.5;exitY=1;exitDx=0;exitDy=0;entryX=1;entryY=0.5;entryDx=0;entryDy=0;labelBackgroundColor=default;strokeColor=default;align=center;verticalAlign=middle;fontFamily=Helvetica;fontSize=11;fontColor=default;endArrow=none;endFill=0;movable=1;resizable=1;rotatable=1;deletable=1;editable=1;locked=0;connectable=1;" edge="1" parent="WLXoXB4fzLFqvVcd2ABZ-164" source="WLXoXB4fzLFqvVcd2ABZ-120" target="WLXoXB4fzLFqvVcd2ABZ-8">
          <mxGeometry relative="1" as="geometry">
            <Array as="points">
              <mxPoint x="385" y="540" />
              <mxPoint x="600" y="540" />
              <mxPoint x="600" y="595" />
            </Array>
          </mxGeometry>
        </mxCell>
        <mxCell id="WLXoXB4fzLFqvVcd2ABZ-9" value="" style="shape=image;html=1;verticalAlign=top;verticalLabelPosition=bottom;labelBackgroundColor=#ffffff;imageAspect=0;aspect=fixed;image=https://cdn3.iconfinder.com/data/icons/energy-and-power-glyph-24-px/24/Bolt_flashlight_lightning_power_thunder-128.png;movable=1;resizable=1;rotatable=1;deletable=1;editable=1;locked=0;connectable=1;container=0;" vertex="1" parent="WLXoXB4fzLFqvVcd2ABZ-164">
          <mxGeometry x="425" y="630" width="40" height="40" as="geometry" />
        </mxCell>
        <mxCell id="WLXoXB4fzLFqvVcd2ABZ-14" value="Head Light&lt;br&gt;&lt;br&gt;&lt;br&gt;&lt;br&gt;&lt;br&gt;&lt;br&gt;&lt;br&gt;&lt;br&gt;&lt;br&gt;&lt;br&gt;" style="rounded=0;whiteSpace=wrap;html=1;fontFamily=Helvetica;fontSize=11;fontColor=default;movable=1;resizable=1;rotatable=1;deletable=1;editable=1;locked=0;connectable=1;container=0;" vertex="1" parent="WLXoXB4fzLFqvVcd2ABZ-164">
          <mxGeometry x="410" y="160" width="120" height="130" as="geometry" />
        </mxCell>
        <mxCell id="WLXoXB4fzLFqvVcd2ABZ-16" value="Low Beam" style="rounded=0;whiteSpace=wrap;html=1;fontFamily=Helvetica;fontSize=11;fontColor=default;movable=1;resizable=1;rotatable=1;deletable=1;editable=1;locked=0;connectable=1;container=0;" vertex="1" parent="WLXoXB4fzLFqvVcd2ABZ-164">
          <mxGeometry x="420" y="240" width="100" height="40" as="geometry" />
        </mxCell>
        <mxCell id="WLXoXB4fzLFqvVcd2ABZ-40" style="edgeStyle=orthogonalEdgeStyle;shape=connector;rounded=0;orthogonalLoop=1;jettySize=auto;html=1;exitX=1;exitY=0.5;exitDx=0;exitDy=0;entryX=1;entryY=0.5;entryDx=0;entryDy=0;labelBackgroundColor=default;strokeColor=default;align=center;verticalAlign=middle;fontFamily=Helvetica;fontSize=11;fontColor=default;endArrow=none;endFill=0;movable=1;resizable=1;rotatable=1;deletable=1;editable=1;locked=0;connectable=1;" edge="1" parent="WLXoXB4fzLFqvVcd2ABZ-164" source="WLXoXB4fzLFqvVcd2ABZ-16" target="WLXoXB4fzLFqvVcd2ABZ-8">
          <mxGeometry relative="1" as="geometry">
            <Array as="points">
              <mxPoint x="600" y="260" />
              <mxPoint x="600" y="595" />
            </Array>
          </mxGeometry>
        </mxCell>
        <mxCell id="WLXoXB4fzLFqvVcd2ABZ-17" value="High Beam" style="rounded=0;whiteSpace=wrap;html=1;fontFamily=Helvetica;fontSize=11;fontColor=default;movable=1;resizable=1;rotatable=1;deletable=1;editable=1;locked=0;connectable=1;container=0;" vertex="1" parent="WLXoXB4fzLFqvVcd2ABZ-164">
          <mxGeometry x="420" y="180" width="100" height="50" as="geometry" />
        </mxCell>
        <mxCell id="WLXoXB4fzLFqvVcd2ABZ-41" value="Rear" style="rounded=0;whiteSpace=wrap;html=1;fontFamily=Helvetica;fontSize=11;fontColor=default;movable=1;resizable=1;rotatable=1;deletable=1;editable=1;locked=0;connectable=1;container=0;" vertex="1" parent="WLXoXB4fzLFqvVcd2ABZ-164">
          <mxGeometry x="50" y="340" width="80" height="140" as="geometry" />
        </mxCell>
        <mxCell id="WLXoXB4fzLFqvVcd2ABZ-42" value="Right&lt;br style=&quot;border-color: var(--border-color);&quot;&gt;Indicator" style="whiteSpace=wrap;html=1;aspect=fixed;fontFamily=Helvetica;fontSize=11;fontColor=default;movable=1;resizable=1;rotatable=1;deletable=1;editable=1;locked=0;connectable=1;container=0;" vertex="1" parent="WLXoXB4fzLFqvVcd2ABZ-164">
          <mxGeometry x="65.63" y="351" width="48.75" height="48.75" as="geometry" />
        </mxCell>
        <mxCell id="WLXoXB4fzLFqvVcd2ABZ-65" style="edgeStyle=orthogonalEdgeStyle;shape=connector;rounded=0;orthogonalLoop=1;jettySize=auto;html=1;exitX=1;exitY=0.5;exitDx=0;exitDy=0;labelBackgroundColor=default;strokeColor=default;align=center;verticalAlign=middle;fontFamily=Helvetica;fontSize=11;fontColor=default;endArrow=none;endFill=0;movable=1;resizable=1;rotatable=1;deletable=1;editable=1;locked=0;connectable=1;" edge="1" parent="WLXoXB4fzLFqvVcd2ABZ-164" source="WLXoXB4fzLFqvVcd2ABZ-43">
          <mxGeometry relative="1" as="geometry">
            <mxPoint x="160" y="340" as="targetPoint" />
          </mxGeometry>
        </mxCell>
        <mxCell id="WLXoXB4fzLFqvVcd2ABZ-43" value="Left&lt;br style=&quot;border-color: var(--border-color);&quot;&gt;Indicator" style="whiteSpace=wrap;html=1;aspect=fixed;fontFamily=Helvetica;fontSize=11;fontColor=default;movable=1;resizable=1;rotatable=1;deletable=1;editable=1;locked=0;connectable=1;container=0;" vertex="1" parent="WLXoXB4fzLFqvVcd2ABZ-164">
          <mxGeometry x="65.63" y="418.13" width="48.75" height="48.75" as="geometry" />
        </mxCell>
        <mxCell id="WLXoXB4fzLFqvVcd2ABZ-148" style="edgeStyle=orthogonalEdgeStyle;shape=connector;rounded=0;orthogonalLoop=1;jettySize=auto;html=1;exitX=0;exitY=0.5;exitDx=0;exitDy=0;entryX=0;entryY=0.5;entryDx=0;entryDy=0;labelBackgroundColor=default;strokeColor=default;align=center;verticalAlign=middle;fontFamily=Helvetica;fontSize=11;fontColor=default;endArrow=none;endFill=0;movable=1;resizable=1;rotatable=1;deletable=1;editable=1;locked=0;connectable=1;" edge="1" parent="WLXoXB4fzLFqvVcd2ABZ-164" source="WLXoXB4fzLFqvVcd2ABZ-143" target="WLXoXB4fzLFqvVcd2ABZ-43">
          <mxGeometry relative="1" as="geometry" />
        </mxCell>
        <mxCell id="WLXoXB4fzLFqvVcd2ABZ-44" value="Front" style="rounded=0;whiteSpace=wrap;html=1;fontFamily=Helvetica;fontSize=11;fontColor=default;movable=1;resizable=1;rotatable=1;deletable=1;editable=1;locked=0;connectable=1;container=0;" vertex="1" parent="WLXoXB4fzLFqvVcd2ABZ-164">
          <mxGeometry x="50" y="150" width="80" height="140" as="geometry" />
        </mxCell>
        <mxCell id="WLXoXB4fzLFqvVcd2ABZ-45" value="Right&lt;br&gt;Indicator" style="whiteSpace=wrap;html=1;aspect=fixed;fontFamily=Helvetica;fontSize=11;fontColor=default;movable=1;resizable=1;rotatable=1;deletable=1;editable=1;locked=0;connectable=1;container=0;" vertex="1" parent="WLXoXB4fzLFqvVcd2ABZ-164">
          <mxGeometry x="65.63" y="161" width="48.75" height="48.75" as="geometry" />
        </mxCell>
        <mxCell id="WLXoXB4fzLFqvVcd2ABZ-130" value="GND" style="edgeStyle=orthogonalEdgeStyle;shape=connector;rounded=0;orthogonalLoop=1;jettySize=auto;html=1;exitX=0;exitY=0.5;exitDx=0;exitDy=0;entryX=0;entryY=0.5;entryDx=0;entryDy=0;labelBackgroundColor=default;strokeColor=default;align=center;verticalAlign=middle;fontFamily=Helvetica;fontSize=11;fontColor=default;endArrow=none;endFill=0;movable=1;resizable=1;rotatable=1;deletable=1;editable=1;locked=0;connectable=1;" edge="1" parent="WLXoXB4fzLFqvVcd2ABZ-164" source="WLXoXB4fzLFqvVcd2ABZ-42" target="WLXoXB4fzLFqvVcd2ABZ-45">
          <mxGeometry relative="1" as="geometry">
            <Array as="points">
              <mxPoint x="30" y="375" />
              <mxPoint x="30" y="185" />
            </Array>
          </mxGeometry>
        </mxCell>
        <mxCell id="WLXoXB4fzLFqvVcd2ABZ-46" value="&#xa;&lt;span style=&quot;color: rgb(0, 0, 0); font-family: Helvetica; font-size: 11px; font-style: normal; font-variant-ligatures: normal; font-variant-caps: normal; font-weight: 400; letter-spacing: normal; orphans: 2; text-align: center; text-indent: 0px; text-transform: none; widows: 2; word-spacing: 0px; -webkit-text-stroke-width: 0px; background-color: rgb(251, 251, 251); text-decoration-thickness: initial; text-decoration-style: initial; text-decoration-color: initial; float: none; display: inline !important;&quot;&gt;Left&lt;/span&gt;&lt;br style=&quot;border-color: var(--border-color); color: rgb(0, 0, 0); font-family: Helvetica; font-size: 11px; font-style: normal; font-variant-ligatures: normal; font-variant-caps: normal; font-weight: 400; letter-spacing: normal; orphans: 2; text-align: center; text-indent: 0px; text-transform: none; widows: 2; word-spacing: 0px; -webkit-text-stroke-width: 0px; background-color: rgb(251, 251, 251); text-decoration-thickness: initial; text-decoration-style: initial; text-decoration-color: initial;&quot;&gt;&lt;span style=&quot;color: rgb(0, 0, 0); font-family: Helvetica; font-size: 11px; font-style: normal; font-variant-ligatures: normal; font-variant-caps: normal; font-weight: 400; letter-spacing: normal; orphans: 2; text-align: center; text-indent: 0px; text-transform: none; widows: 2; word-spacing: 0px; -webkit-text-stroke-width: 0px; background-color: rgb(251, 251, 251); text-decoration-thickness: initial; text-decoration-style: initial; text-decoration-color: initial; float: none; display: inline !important;&quot;&gt;Indicator&lt;/span&gt;&#xa;&#xa;" style="whiteSpace=wrap;html=1;aspect=fixed;fontFamily=Helvetica;fontSize=11;fontColor=default;movable=1;resizable=1;rotatable=1;deletable=1;editable=1;locked=0;connectable=1;container=0;" vertex="1" parent="WLXoXB4fzLFqvVcd2ABZ-164">
          <mxGeometry x="65.63" y="228.13" width="48.75" height="48.75" as="geometry" />
        </mxCell>
        <mxCell id="WLXoXB4fzLFqvVcd2ABZ-86" value="Cooling&amp;nbsp;&lt;br&gt;System&lt;br&gt;&lt;br&gt;&lt;br&gt;&lt;br&gt;&lt;br&gt;&lt;br&gt;&lt;br&gt;&lt;br&gt;" style="rounded=0;whiteSpace=wrap;html=1;fontFamily=Helvetica;fontSize=11;fontColor=default;movable=1;resizable=1;rotatable=1;deletable=1;editable=1;locked=0;connectable=1;container=0;" vertex="1" parent="WLXoXB4fzLFqvVcd2ABZ-164">
          <mxGeometry x="160" y="50" width="50" height="120" as="geometry" />
        </mxCell>
        <mxCell id="WLXoXB4fzLFqvVcd2ABZ-87" value="Fan 1" style="whiteSpace=wrap;html=1;aspect=fixed;fontFamily=Helvetica;fontSize=11;fontColor=default;movable=1;resizable=1;rotatable=1;deletable=1;editable=1;locked=0;connectable=1;container=0;" vertex="1" parent="WLXoXB4fzLFqvVcd2ABZ-164">
          <mxGeometry x="167.5" y="80" width="35" height="35" as="geometry" />
        </mxCell>
        <mxCell id="WLXoXB4fzLFqvVcd2ABZ-93" style="edgeStyle=orthogonalEdgeStyle;shape=connector;rounded=0;orthogonalLoop=1;jettySize=auto;html=1;entryX=0;entryY=0.5;entryDx=0;entryDy=0;entryPerimeter=0;labelBackgroundColor=default;strokeColor=default;align=center;verticalAlign=middle;fontFamily=Helvetica;fontSize=11;fontColor=default;endArrow=none;endFill=0;movable=1;resizable=1;rotatable=1;deletable=1;editable=1;locked=0;connectable=1;" edge="1" parent="WLXoXB4fzLFqvVcd2ABZ-164" source="WLXoXB4fzLFqvVcd2ABZ-87" target="WLXoXB4fzLFqvVcd2ABZ-22">
          <mxGeometry relative="1" as="geometry">
            <Array as="points">
              <mxPoint x="250" y="100" />
              <mxPoint x="250" y="595" />
            </Array>
          </mxGeometry>
        </mxCell>
        <mxCell id="WLXoXB4fzLFqvVcd2ABZ-129" style="edgeStyle=orthogonalEdgeStyle;shape=connector;rounded=0;orthogonalLoop=1;jettySize=auto;html=1;exitX=0;exitY=0.5;exitDx=0;exitDy=0;entryX=0;entryY=0.5;entryDx=0;entryDy=0;labelBackgroundColor=default;strokeColor=default;align=center;verticalAlign=middle;fontFamily=Helvetica;fontSize=11;fontColor=default;endArrow=none;endFill=0;movable=1;resizable=1;rotatable=1;deletable=1;editable=1;locked=0;connectable=1;" edge="1" parent="WLXoXB4fzLFqvVcd2ABZ-164" source="WLXoXB4fzLFqvVcd2ABZ-43" target="WLXoXB4fzLFqvVcd2ABZ-87">
          <mxGeometry relative="1" as="geometry">
            <Array as="points">
              <mxPoint x="30" y="443" />
              <mxPoint x="30" y="100" />
              <mxPoint x="168" y="100" />
            </Array>
          </mxGeometry>
        </mxCell>
        <mxCell id="WLXoXB4fzLFqvVcd2ABZ-100" style="edgeStyle=orthogonalEdgeStyle;shape=connector;rounded=0;orthogonalLoop=1;jettySize=auto;html=1;exitX=0;exitY=0.5;exitDx=0;exitDy=0;entryX=0;entryY=0.5;entryDx=0;entryDy=0;labelBackgroundColor=default;strokeColor=default;align=center;verticalAlign=middle;fontFamily=Helvetica;fontSize=11;fontColor=default;endArrow=none;endFill=0;movable=1;resizable=1;rotatable=1;deletable=1;editable=1;locked=0;connectable=1;" edge="1" parent="WLXoXB4fzLFqvVcd2ABZ-164" source="WLXoXB4fzLFqvVcd2ABZ-87" target="WLXoXB4fzLFqvVcd2ABZ-45">
          <mxGeometry relative="1" as="geometry">
            <Array as="points">
              <mxPoint x="30" y="100" />
              <mxPoint x="30" y="185" />
            </Array>
          </mxGeometry>
        </mxCell>
        <mxCell id="WLXoXB4fzLFqvVcd2ABZ-132" style="edgeStyle=orthogonalEdgeStyle;shape=connector;rounded=0;orthogonalLoop=1;jettySize=auto;html=1;exitX=0;exitY=0.5;exitDx=0;exitDy=0;entryX=0;entryY=0.5;entryDx=0;entryDy=0;labelBackgroundColor=default;strokeColor=default;align=center;verticalAlign=middle;fontFamily=Helvetica;fontSize=11;fontColor=default;endArrow=none;endFill=0;movable=1;resizable=1;rotatable=1;deletable=1;editable=1;locked=0;connectable=1;" edge="1" parent="WLXoXB4fzLFqvVcd2ABZ-164" source="WLXoXB4fzLFqvVcd2ABZ-46" target="WLXoXB4fzLFqvVcd2ABZ-87">
          <mxGeometry relative="1" as="geometry">
            <Array as="points">
              <mxPoint x="30" y="253" />
              <mxPoint x="30" y="100" />
              <mxPoint x="167" y="100" />
            </Array>
          </mxGeometry>
        </mxCell>
        <mxCell id="WLXoXB4fzLFqvVcd2ABZ-102" style="edgeStyle=orthogonalEdgeStyle;shape=connector;rounded=0;orthogonalLoop=1;jettySize=auto;html=1;exitX=0;exitY=0.5;exitDx=0;exitDy=0;entryX=0;entryY=0.5;entryDx=0;entryDy=0;labelBackgroundColor=default;strokeColor=default;align=center;verticalAlign=middle;fontFamily=Helvetica;fontSize=11;fontColor=default;endArrow=none;endFill=0;movable=1;resizable=1;rotatable=1;deletable=1;editable=1;locked=0;connectable=1;" edge="1" parent="WLXoXB4fzLFqvVcd2ABZ-164" source="WLXoXB4fzLFqvVcd2ABZ-88" target="WLXoXB4fzLFqvVcd2ABZ-87">
          <mxGeometry relative="1" as="geometry">
            <Array as="points">
              <mxPoint x="130" y="143" />
              <mxPoint x="130" y="100" />
            </Array>
          </mxGeometry>
        </mxCell>
        <mxCell id="WLXoXB4fzLFqvVcd2ABZ-88" value="Fan 2" style="whiteSpace=wrap;html=1;aspect=fixed;fontFamily=Helvetica;fontSize=11;fontColor=default;movable=1;resizable=1;rotatable=1;deletable=1;editable=1;locked=0;connectable=1;container=0;" vertex="1" parent="WLXoXB4fzLFqvVcd2ABZ-164">
          <mxGeometry x="167.5" y="125" width="35" height="35" as="geometry" />
        </mxCell>
        <mxCell id="WLXoXB4fzLFqvVcd2ABZ-94" style="edgeStyle=orthogonalEdgeStyle;shape=connector;rounded=0;orthogonalLoop=1;jettySize=auto;html=1;entryX=0;entryY=0.5;entryDx=0;entryDy=0;entryPerimeter=0;labelBackgroundColor=default;strokeColor=default;align=center;verticalAlign=middle;fontFamily=Helvetica;fontSize=11;fontColor=default;endArrow=none;endFill=0;movable=1;resizable=1;rotatable=1;deletable=1;editable=1;locked=0;connectable=1;" edge="1" parent="WLXoXB4fzLFqvVcd2ABZ-164" source="WLXoXB4fzLFqvVcd2ABZ-88" target="WLXoXB4fzLFqvVcd2ABZ-22">
          <mxGeometry relative="1" as="geometry">
            <Array as="points">
              <mxPoint x="250" y="143" />
              <mxPoint x="250" y="595" />
            </Array>
          </mxGeometry>
        </mxCell>
        <mxCell id="WLXoXB4fzLFqvVcd2ABZ-161" value="VCC" style="edgeLabel;html=1;align=center;verticalAlign=middle;resizable=1;points=[];fontSize=11;fontFamily=Helvetica;fontColor=default;movable=1;rotatable=1;deletable=1;editable=1;locked=0;connectable=1;container=0;" vertex="1" connectable="0" parent="WLXoXB4fzLFqvVcd2ABZ-94">
          <mxGeometry x="-0.7456" y="-3" relative="1" as="geometry">
            <mxPoint as="offset" />
          </mxGeometry>
        </mxCell>
        <mxCell id="WLXoXB4fzLFqvVcd2ABZ-110" style="edgeStyle=orthogonalEdgeStyle;shape=connector;rounded=0;orthogonalLoop=1;jettySize=auto;html=1;exitX=1;exitY=0.5;exitDx=0;exitDy=0;exitPerimeter=0;entryX=0.5;entryY=0;entryDx=0;entryDy=0;labelBackgroundColor=default;strokeColor=default;align=center;verticalAlign=middle;fontFamily=Helvetica;fontSize=11;fontColor=default;endArrow=none;endFill=0;movable=1;resizable=1;rotatable=1;deletable=1;editable=1;locked=0;connectable=1;" edge="1" parent="WLXoXB4fzLFqvVcd2ABZ-164" target="WLXoXB4fzLFqvVcd2ABZ-104">
          <mxGeometry relative="1" as="geometry">
            <mxPoint x="331.2550000000001" y="370.0050000000001" as="sourcePoint" />
          </mxGeometry>
        </mxCell>
        <mxCell id="WLXoXB4fzLFqvVcd2ABZ-103" value="&lt;font style=&quot;font-size: 9px;&quot;&gt;5V Regulator&lt;/font&gt;" style="rounded=0;whiteSpace=wrap;html=1;fontFamily=Helvetica;fontSize=11;fontColor=default;movable=1;resizable=1;rotatable=1;deletable=1;editable=1;locked=0;connectable=1;container=0;" vertex="1" parent="WLXoXB4fzLFqvVcd2ABZ-164">
          <mxGeometry x="310" y="370" width="80" height="40" as="geometry" />
        </mxCell>
        <mxCell id="WLXoXB4fzLFqvVcd2ABZ-104" value="&lt;font style=&quot;font-size: 8px;&quot;&gt;IN&lt;/font&gt;" style="rounded=0;whiteSpace=wrap;html=1;fontFamily=Helvetica;fontSize=11;fontColor=default;movable=1;resizable=1;rotatable=1;deletable=1;editable=1;locked=0;connectable=1;container=0;" vertex="1" parent="WLXoXB4fzLFqvVcd2ABZ-164">
          <mxGeometry x="340" y="370" width="20" height="10" as="geometry" />
        </mxCell>
        <mxCell id="WLXoXB4fzLFqvVcd2ABZ-105" value="&lt;font style=&quot;font-size: 7px;&quot;&gt;GND&lt;/font&gt;" style="rounded=0;whiteSpace=wrap;html=1;fontFamily=Helvetica;fontSize=11;fontColor=default;movable=1;resizable=1;rotatable=1;deletable=1;editable=1;locked=0;connectable=1;container=0;" vertex="1" parent="WLXoXB4fzLFqvVcd2ABZ-164">
          <mxGeometry x="370" y="400" width="20" height="10" as="geometry" />
        </mxCell>
        <mxCell id="WLXoXB4fzLFqvVcd2ABZ-106" value="&lt;font style=&quot;font-size: 7px;&quot;&gt;OUT&lt;/font&gt;" style="rounded=0;whiteSpace=wrap;html=1;fontFamily=Helvetica;fontSize=11;fontColor=default;movable=1;resizable=1;rotatable=1;deletable=1;editable=1;locked=0;connectable=1;container=0;" vertex="1" parent="WLXoXB4fzLFqvVcd2ABZ-164">
          <mxGeometry x="310" y="400" width="20" height="10" as="geometry" />
        </mxCell>
        <mxCell id="WLXoXB4fzLFqvVcd2ABZ-78" value="" style="ellipse;whiteSpace=wrap;html=1;aspect=fixed;movable=1;resizable=1;rotatable=1;deletable=1;editable=1;locked=0;connectable=1;container=0;" vertex="1" parent="WLXoXB4fzLFqvVcd2ABZ-164">
          <mxGeometry x="260" y="582.5" width="25" height="25" as="geometry" />
        </mxCell>
        <mxCell id="WLXoXB4fzLFqvVcd2ABZ-79" value="" style="rounded=0;whiteSpace=wrap;html=1;rotation=-30;movable=1;resizable=1;rotatable=1;deletable=1;editable=1;locked=0;connectable=1;container=0;" vertex="1" parent="WLXoXB4fzLFqvVcd2ABZ-164">
          <mxGeometry x="265" y="591.875" width="15" height="6.25" as="geometry" />
        </mxCell>
        <mxCell id="WLXoXB4fzLFqvVcd2ABZ-141" style="edgeStyle=orthogonalEdgeStyle;shape=connector;rounded=0;orthogonalLoop=1;jettySize=auto;html=1;entryX=1;entryY=0.5;entryDx=0;entryDy=0;labelBackgroundColor=default;strokeColor=default;align=center;verticalAlign=middle;fontFamily=Helvetica;fontSize=11;fontColor=default;endArrow=none;endFill=0;movable=1;resizable=1;rotatable=1;deletable=1;editable=1;locked=0;connectable=1;" edge="1" parent="WLXoXB4fzLFqvVcd2ABZ-164" source="WLXoXB4fzLFqvVcd2ABZ-105" target="WLXoXB4fzLFqvVcd2ABZ-8">
          <mxGeometry relative="1" as="geometry">
            <Array as="points">
              <mxPoint x="600" y="405" />
              <mxPoint x="600" y="595" />
            </Array>
          </mxGeometry>
        </mxCell>
        <mxCell id="WLXoXB4fzLFqvVcd2ABZ-22" value="" style="pointerEvents=1;verticalLabelPosition=bottom;shadow=0;dashed=0;align=center;html=1;verticalAlign=top;shape=mxgraph.electrical.miscellaneous.fuse_1;movable=1;resizable=1;rotatable=1;deletable=1;editable=1;locked=0;connectable=1;container=0;" vertex="1" parent="WLXoXB4fzLFqvVcd2ABZ-164">
          <mxGeometry x="290" y="587.5" width="70" height="15" as="geometry" />
        </mxCell>
        <mxCell id="WLXoXB4fzLFqvVcd2ABZ-21" value="&lt;font style=&quot;font-size: 7px;&quot;&gt;15A Fuse&lt;/font&gt;" style="text;html=1;strokeColor=none;fillColor=none;align=center;verticalAlign=middle;whiteSpace=wrap;rounded=0;fontSize=11;fontFamily=Helvetica;fontColor=default;movable=1;resizable=1;rotatable=1;deletable=1;editable=1;locked=0;connectable=1;container=0;" vertex="1" parent="WLXoXB4fzLFqvVcd2ABZ-164">
          <mxGeometry x="300" y="585.6300000000001" width="47.5" height="18.75" as="geometry" />
        </mxCell>
        <mxCell id="WLXoXB4fzLFqvVcd2ABZ-66" value="&lt;font style=&quot;font-size: 6px;&quot;&gt;Flash Circuit&lt;/font&gt;" style="rounded=0;whiteSpace=wrap;html=1;fontFamily=Helvetica;fontSize=11;fontColor=default;movable=1;resizable=1;rotatable=1;deletable=1;editable=1;locked=0;connectable=1;container=0;" vertex="1" parent="WLXoXB4fzLFqvVcd2ABZ-164">
          <mxGeometry x="140" y="350" width="40" height="20" as="geometry" />
        </mxCell>
      </root>
    </mxGraphModel>
  </diagram>
</mxfile>
